<svg viewBox="0 0 20 20" xmlns="http://www.w3.org/2000/svg" xmlns:xlink="http://www.w3.org/1999/xlink" width="20.000000" height="20.000000" fill="none">
	<rect id="door_arrow_left_outline_28" width="20.000000" height="20.000000" x="0.000000" y="0.000000" />
	<g id="Source" opacity="0">
		<path id="Vector 5" d="M6.42857 0L4.57143 0C2.97128 0 2.1712 0 1.56003 0.31141C1.02242 0.585334 0.585334 1.02242 0.31141 1.56003C-1.19209e-07 2.1712 -1.46081e-07 2.97128 -1.99823e-07 4.57143L-1.99823e-07 9.71429C-1.26212e-07 11.3144 -8.9407e-08 12.1145 0.31141 12.7257C0.585335 13.2633 1.02242 13.7004 1.56003 13.9743C2.1712 14.2857 2.97128 14.2857 4.57143 14.2857L6.42857 14.2857" stroke="rgb(63,138,224)" stroke-width="1.42857146" transform="matrix(-1,-1.22465e-16,1.22465e-16,-1,17.1428,17.1428)" />
		<path id="Vector 6" d="M2.85718 10L11.4286 10" stroke="rgb(63,138,224)" stroke-linecap="round" stroke-linejoin="round" stroke-width="1.42857146" />
		<path id="Vector 8" d="M5.71429 3.09474e-15L2.85714 2.85714L0 0" stroke="rgb(63,138,224)" stroke-linecap="round" stroke-linejoin="round" stroke-width="1.42857146" transform="matrix(6.12323e-17,-1,1,6.12323e-17,8.57141,12.8572)" />
	</g>
	<path id="↳ Icon Color" d="M12.602 17.8571L10.7143 17.8571C10.3198 17.8571 9.99996 17.5373 9.99996 17.1428C9.99996 16.7483 10.3198 16.4285 10.7143 16.4285L12.5714 16.4285C13.3833 16.4285 13.9492 16.428 14.3898 16.392C14.8221 16.3567 15.0704 16.2908 15.2585 16.195C15.6617 15.9895 15.9895 15.6617 16.195 15.2585C16.2908 15.0704 16.3567 14.8221 16.392 14.3898C16.428 13.9492 16.4285 13.3833 16.4285 12.5714L16.4285 7.42854C16.4285 6.61667 16.428 6.05074 16.392 5.61014C16.3567 5.17787 16.2908 4.92953 16.195 4.74142C15.9895 4.33821 15.6617 4.01039 15.2585 3.80495C15.0704 3.7091 14.8221 3.64327 14.3898 3.60795C13.9492 3.57195 13.3833 3.57139 12.5714 3.57139L10.7143 3.57139C10.3198 3.57139 9.99996 3.2516 9.99996 2.85711C9.99996 2.46262 10.3198 2.14282 10.7143 2.14282L12.602 2.14282L12.6021 2.14282C13.3762 2.14282 14.0005 2.14281 14.5061 2.18412C15.0267 2.22666 15.484 2.31652 15.9071 2.53208C16.5791 2.87449 17.1254 3.42085 17.4678 4.09286C17.6834 4.51592 17.7733 4.9732 17.8158 5.49381C17.8571 5.99943 17.8571 6.62383 17.8571 7.39796L17.8571 12.602C17.8571 13.3761 17.8571 14.0005 17.8158 14.5061C17.7733 15.0267 17.6834 15.484 17.4678 15.9071C17.1254 16.5791 16.5791 17.1254 15.9071 17.4678C15.484 17.6834 15.0267 17.7733 14.5061 17.8158C14.0005 17.8571 13.3761 17.8571 12.602 17.8571ZM2.14282 9.99997C2.14282 9.60548 2.46262 9.28568 2.85711 9.28568L9.7041 9.28568L8.06632 7.6479C7.78737 7.36895 7.78737 6.91669 8.06632 6.63775C8.34526 6.3588 8.79752 6.3588 9.07647 6.63775L11.9331 9.49438C11.9348 9.4961 11.9365 9.49783 11.9383 9.49957C12.0044 9.56696 12.0546 9.64422 12.0886 9.72655C12.1233 9.81015 12.1425 9.90175 12.1428 9.99782C12.1428 9.99854 12.1428 9.99925 12.1428 9.99997C12.1428 10.0007 12.1428 10.0014 12.1428 10.0021C12.1423 10.1961 12.0643 10.372 11.9383 10.5004C11.9365 10.5021 11.9348 10.5038 11.9331 10.5056L9.07647 13.3622C8.79752 13.6411 8.34526 13.6411 8.06632 13.3622C7.78737 13.0832 7.78737 12.631 8.06632 12.352L9.7041 10.7143L2.85711 10.7143C2.46262 10.7143 2.14282 10.3945 2.14282 9.99997Z" fill="rgb(38,41,49)" fill-rule="evenodd" />
</svg>
