<svg viewBox="0 0 104 36" xmlns="http://www.w3.org/2000/svg" xmlns:xlink="http://www.w3.org/1999/xlink" width="104.000000" height="36.000000" fill="none">
	<rect id="finaid-logo-Color" width="104.000000" height="36.000000" x="0.000000" y="0.000000" fill="rgb(255,255,255)" fill-opacity="0" />
	<path id="Vector" d="M16.4325 0C7.28151 0.558533 0 8.37803 0 17.9746C0 27.5713 7.28151 35.3907 16.4325 35.9492L16.4325 36L56.1107 36L56.1107 0L16.4325 0Z" fill="rgb(1,118,255)" fill-rule="nonzero" />
	<path id="Vector" d="M46.7932 17.9746C46.7932 8.37803 50.5748 0.558533 55.3276 0L59.9473 0L73.444 0L87.5724 0C96.7118 0.558533 103.984 8.37803 103.984 17.9746C103.984 27.5713 96.7118 35.3907 87.5724 35.9492L87.5724 36L73.444 35.9772L73.444 36L55.3276 36L55.3276 35.9492C50.5748 35.3907 46.7932 27.5713 46.7932 17.9746Z" fill="rgb(255,0,0)" fill-rule="evenodd" />
	<path id="Vector" d="M8.83795 11.8559L10.4913 11.8559C10.4913 9.3407 10.5348 7.81356 10.6218 7.36445C10.7523 6.28648 11.1873 5.47802 11.927 4.84921C12.6666 4.22041 13.7108 3.90601 15.0595 3.90601C16.0167 3.90601 17.1479 4.13058 18.3661 4.57973L18.3661 8.26275C17.67 8.0831 17.1479 7.9483 16.7128 7.9483C16.1472 7.9483 15.7557 8.0831 15.4946 8.30766C15.3205 8.48731 15.2335 8.8466 15.2335 9.38561L15.2335 11.811L18.1921 11.811L18.1921 15.8982L15.2335 15.8982L15.2335 31.0794L14.3279 31.0794C12.209 31.0794 10.4913 29.3061 10.4913 27.1187L10.4913 15.9431L8.83795 15.9431L8.83795 11.8559Z" fill="rgb(255,255,255)" fill-rule="nonzero" />
	<path id="Vector" d="M20.0195 11.8562L24.7183 11.8562L24.7183 31.1245L20.0195 31.1245L20.0195 11.8562Z" fill="rgb(255,255,255)" fill-rule="nonzero" />
	<path id="Vector" d="M28.6339 11.8558L33.3327 11.8558L33.3327 13.8321C34.3769 12.8889 35.3775 12.26 36.2042 11.9008C37.0308 11.5415 37.9445 11.3618 38.8582 11.3618C40.729 11.3618 42.2952 12.0355 43.5569 13.383C44.6447 14.5058 45.1668 16.2126 45.1668 18.4134L45.1668 31.1243L40.5549 31.1243L40.5549 22.6802C40.5549 20.3896 40.4679 18.8625 40.2504 18.099C40.0329 17.3354 39.6848 16.7516 39.2062 16.3922C38.7277 16.0329 38.1185 15.8083 37.3789 15.8083C36.4217 15.8083 35.6386 16.1227 34.9425 16.7965C34.2463 17.4701 33.8113 18.3684 33.5502 19.4913C33.4197 20.0752 33.3327 21.3777 33.3327 23.3989L33.3327 31.1243L28.6339 31.1243L28.6339 11.8558Z" fill="rgb(255,255,255)" fill-rule="nonzero" />
	<path id="Vector" d="M64.2642 11.8562L68.9627 11.8562L68.9627 31.1245L64.2642 31.1245L64.2642 29.1034C63.3505 30.0017 62.4369 30.6305 61.5232 31.0347C60.6095 31.439 59.6089 31.6186 58.5212 31.6186C56.1282 31.6186 54.0399 30.6754 52.2561 28.7441C50.5158 26.8127 49.6021 24.4323 49.6021 21.5577C49.6021 18.5933 50.4723 16.1231 52.1691 14.2366C53.8658 12.3502 55.9542 11.407 58.3907 11.407C59.5219 11.407 60.566 11.6315 61.5232 12.0807C62.5239 12.5298 63.394 13.1587 64.2642 14.057L64.2642 11.8562ZM59.3478 15.8536C57.912 15.8536 56.6938 16.3925 55.7367 17.4256C54.7795 18.5035 54.301 19.8509 54.301 21.4679C54.301 23.1298 54.7795 24.5221 55.7802 25.5551C56.7374 26.6331 57.9555 27.172 59.3913 27.172C60.8706 27.172 62.0888 26.6331 63.0459 25.6C64.0031 24.5221 64.4817 23.1747 64.4817 21.4679C64.4817 19.806 64.0031 18.4137 63.0459 17.3806C62.0453 16.3476 60.8271 15.8536 59.3478 15.8536Z" fill="rgb(255,255,255)" fill-rule="nonzero" />
	<path id="Vector" d="M70.635 11.8562L75.3342 11.8562L75.3342 31.1245L70.635 31.1245L70.635 11.8562Z" fill="rgb(255,255,255)" fill-rule="nonzero" />
	<path id="Vector" d="M91.3261 4.44507L91.6399 4.44507C94.0618 4.44507 96.0246 6.47166 96.0246 8.97162L96.0246 26.6427C96.0246 29.1427 94.0618 31.1693 91.6399 31.1693L91.3261 31.1693L91.3261 29.1481C90.4122 30.0464 89.499 30.6752 88.585 31.0794C87.6718 31.4837 86.6708 31.6634 85.5829 31.6634C83.1904 31.6634 81.1015 30.7201 79.3182 28.7888C77.578 26.8575 76.6641 24.477 76.6641 21.6025C76.6641 18.6381 77.5341 16.1678 79.2312 14.2814C80.9275 12.3949 83.0164 11.4517 85.4527 11.4517C86.5838 11.4517 87.6279 11.6764 88.585 12.1255C89.586 12.5746 90.4561 13.2034 91.3261 14.1017L91.3261 4.44507ZM86.4098 15.8534C84.9738 15.8534 83.7557 16.3924 82.7986 17.4254C81.8415 18.5033 81.3626 19.8508 81.3626 21.4677C81.3626 23.1296 81.8415 24.5219 82.8424 25.555C83.7995 26.6329 85.0176 27.1719 86.4529 27.1719C87.9328 27.1719 89.1509 26.6329 90.108 25.5999C91.0651 24.5219 91.5433 23.1745 91.5433 21.4677C91.5433 19.8058 91.0651 18.4135 90.108 17.3805C89.1071 16.3474 87.8889 15.8534 86.4098 15.8534Z" fill="rgb(255,255,255)" fill-rule="nonzero" />
	<path id="Vector" d="M73.1699 9.12368C74.5699 9.12368 75.7048 7.95206 75.7048 6.50679C75.7048 5.06152 74.5699 3.88989 73.1699 3.88989C71.7699 3.88989 70.635 5.06152 70.635 6.50679C70.635 7.95206 71.7699 9.12368 73.1699 9.12368Z" fill="rgb(255,255,255)" fill-rule="evenodd" />
</svg>
