<svg viewBox="0 0 16.002 16.0029" xmlns="http://www.w3.org/2000/svg" xmlns:xlink="http://www.w3.org/1999/xlink" width="16.001984" height="16.002930" fill="none" customFrame="#000000">
	<rect id="LastAddon" width="16.001982" height="16.002930" x="0.000031" y="0.000000" fill="rgb(255,255,255)" fill-opacity="0" />
	<path id="icon" d="M15.946 8.33295L15.9488 8.32486C15.969 8.26559 15.9835 8.20435 15.9923 8.14194C16.0144 7.98413 15.9986 7.82333 15.946 7.67291C15.3778 6.01746 14.3066 4.58087 12.8822 3.56378C11.4578 2.54672 9.75125 2 8.001 2C6.25076 2 4.54422 2.54672 3.11978 3.56378C1.69534 4.58087 0.624232 6.01746 0.0559952 7.67291C0.0251724 7.76114 0.0069229 7.85327 0.00161284 7.9462L0.000880416 7.96133C0.000147994 7.97974 -0.000157182 7.99817 0.000147994 8.01663C0.000331099 8.03098 0.00081938 8.04532 0.00161284 8.05966C0.0069229 8.15298 0.0252945 8.24506 0.0559952 8.33295C0.631374 9.98459 1.7051 11.417 3.12905 12.4326C4.553 13.4481 6.25698 13.9968 8.00601 14.0029C9.75326 13.9948 11.455 13.4451 12.877 12.4297C14.299 11.4142 15.3711 9.98297 15.946 8.33295ZM4.27987 10.8071C3.28994 10.0996 2.52426 9.12619 2.06924 8.00293C2.52426 6.87967 3.28994 5.90622 4.27987 5.19879C5.36557 4.42294 6.66659 4.00583 8.001 4.00583C9.33541 4.00583 10.6364 4.42294 11.7221 5.19879C12.712 5.90622 13.4777 6.87967 13.9328 8.00293C13.4777 9.12619 12.712 10.0996 11.7221 10.8071C10.6364 11.5829 9.33541 12 8.001 12C6.66659 12 5.36557 11.5829 4.27987 10.8071ZM6.88888 9.66586C7.2178 9.88562 7.60446 10.0029 8.00003 10.0029C8.26266 10.0029 8.52273 9.9512 8.76541 9.85068C9.00802 9.75018 9.22854 9.60284 9.41427 9.41714C9.59994 9.23141 9.74728 9.01096 9.8478 8.76831C9.94827 8.52563 10 8.26556 10 8.00293C10 7.60736 9.88272 7.22067 9.66299 6.89178C9.4432 6.5629 9.13082 6.30655 8.76541 6.15518C8.39993 6.00378 7.99783 5.9642 7.60983 6.04135C7.22189 6.11853 6.8655 6.30902 6.58584 6.58871C6.30612 6.86841 6.11563 7.22479 6.03848 7.61276C5.96127 8.0007 6.00088 8.40283 6.15225 8.76831C6.30368 9.13376 6.55996 9.44611 6.88888 9.66586Z" fill="rgb(159,161,173)" fill-rule="evenodd" />
</svg>
