<svg viewBox="0 0 20 20" xmlns="http://www.w3.org/2000/svg" xmlns:xlink="http://www.w3.org/1999/xlink" width="20.000000" height="20.000000" fill="none">
	<rect id="mail_outline_28" width="20.000000" height="20.000000" x="0.000000" y="0.000000" />
	<path id="↳ Icon Color" d="M1.42859 9.71408C1.42859 7.31385 1.42859 6.11374 1.8957 5.19697C2.30659 4.39057 2.96222 3.73493 3.76863 3.32405C4.68539 2.85693 5.88551 2.85693 8.28573 2.85693L11.7143 2.85693C14.1145 2.85693 15.3146 2.85693 16.2314 3.32405C17.0378 3.73493 17.6934 4.39057 18.1043 5.19697C18.5714 6.11374 18.5714 7.31385 18.5714 9.71408L18.5714 10.2855C18.5714 12.6857 18.5714 13.8858 18.1043 14.8026C17.6934 15.609 17.0378 16.2646 16.2314 16.6755C15.3146 17.1426 14.1145 17.1426 11.7143 17.1426L8.28573 17.1426C5.88551 17.1426 4.68539 17.1426 3.76863 16.6755C2.96222 16.2646 2.30659 15.609 1.8957 14.8026C1.42859 13.8858 1.42859 12.6857 1.42859 10.2855L1.42859 9.71408ZM8.28573 4.28551L11.7143 4.28551C12.938 4.28551 13.7698 4.28662 14.4128 4.33915C15.0391 4.39032 15.3594 4.48307 15.5828 4.59692C15.6351 4.62356 15.6865 4.65175 15.7368 4.68142L11.9193 8.49892C11.4867 8.93156 11.1922 9.22527 10.9463 9.43402C10.7067 9.63736 10.5607 9.71781 10.4415 9.75656C10.1546 9.84978 9.84548 9.84978 9.55856 9.75656C9.43932 9.71781 9.29329 9.63736 9.05376 9.43402C8.80786 9.22527 8.51337 8.93156 8.08073 8.49892L4.26323 4.68142C4.31356 4.65175 4.3649 4.62356 4.41719 4.59692C4.64062 4.48307 4.96091 4.39032 5.58721 4.33915C6.2302 4.28662 7.06205 4.28551 8.28573 4.28551ZM3.25307 5.69157C3.2234 5.7419 3.19521 5.79324 3.16857 5.84553C3.05473 6.06896 2.96198 6.38925 2.91081 7.01556C2.85827 7.65854 2.85716 8.49039 2.85716 9.71408L2.85716 10.2855C2.85716 11.5092 2.85827 12.341 2.91081 12.984C2.96198 13.6103 3.05473 13.9306 3.16857 14.154C3.44249 14.6917 3.87958 15.1287 4.41719 15.4027C4.64062 15.5165 4.96091 15.6093 5.58721 15.6604C6.2302 15.713 7.06205 15.7141 8.28573 15.7141L11.7143 15.7141C12.938 15.7141 13.7698 15.713 14.4128 15.6604C15.0391 15.6093 15.3594 15.5165 15.5828 15.4027C16.1205 15.1287 16.5575 14.6917 16.8315 14.154C16.9453 13.9306 17.0381 13.6103 17.0892 12.984C17.1418 12.341 17.1429 11.5092 17.1429 10.2855L17.1429 9.71408C17.1429 8.49039 17.1418 7.65854 17.0892 7.01556C17.0381 6.38925 16.9453 6.06896 16.8315 5.84553C16.8048 5.79324 16.7766 5.7419 16.747 5.69157L12.9086 9.52993C12.5021 9.93649 12.1665 10.2721 11.8708 10.5231C11.5637 10.7838 11.253 10.995 10.8829 11.1152C10.3091 11.3017 9.69095 11.3017 9.11711 11.1152C8.74708 10.995 8.43632 10.7838 8.12922 10.5231C7.83355 10.2721 7.498 9.93651 7.09143 9.52993L3.25307 5.69157Z" fill="rgb(38,41,49)" fill-rule="evenodd" />
</svg>
