<svg viewBox="0 0 32 32" xmlns="http://www.w3.org/2000/svg" xmlns:xlink="http://www.w3.org/1999/xlink" width="32.000000" height="32.000000" fill="none" customFrame="#000000">
	<rect id="menu_28" width="32.000000" height="32.000000" x="0.000000" y="0.000000" />
	<path id="↳ Icon Color" d="M26 22.2856C26.789 22.2856 27.4286 22.9252 27.4286 23.7142C27.4286 24.5032 26.789 25.1428 26 25.1428L5.99998 25.1428C5.211 25.1428 4.57141 24.5032 4.57141 23.7142C4.57141 22.9252 5.211 22.2856 5.99998 22.2856L26 22.2856ZM26 14.857C26.789 14.857 27.4286 15.4966 27.4286 16.2856C27.4286 17.0746 26.789 17.7142 26 17.7142L5.99998 17.7142C5.211 17.7142 4.57141 17.0746 4.57141 16.2856C4.57141 15.4966 5.211 14.857 5.99998 14.857L26 14.857ZM26 7.42847C26.789 7.42847 27.4286 8.06806 27.4286 8.85704C27.4286 9.64602 26.789 10.2856 26 10.2856L5.99998 10.2856C5.211 10.2856 4.57141 9.64602 4.57141 8.85704C4.57141 8.06806 5.211 7.42847 5.99998 7.42847L26 7.42847Z" fill="rgb(38,41,49)" fill-rule="nonzero" />
</svg>
