<svg viewBox="0 0 20 20" xmlns="http://www.w3.org/2000/svg" xmlns:xlink="http://www.w3.org/1999/xlink" width="20.000000" height="20.000000" fill="none">
	<rect id="smartphone_outline_28" width="20.000000" height="20.000000" x="0.000000" y="0.000000" />
	<g id="Source" opacity="0">
		<rect id="rectangle" width="10.000000" height="15.714285" x="4.999930" y="2.142997" rx="2.142857" stroke="rgb(63,138,224)" stroke-width="1.42857146" />
		<path id="line" d="M9.28564 15L10.7142 15" stroke="rgb(63,138,224)" stroke-linecap="round" stroke-linejoin="round" stroke-width="1.42857146" />
	</g>
	<path id="↳ Icon Color" d="M4.59705 2.98874C4.28564 3.59991 4.28564 4.39999 4.28564 6.00014L4.28564 14.0001C4.28564 15.6003 4.28564 16.4004 4.59705 17.0115C4.87098 17.5491 5.30807 17.9862 5.84567 18.2602C6.45685 18.5716 7.25692 18.5716 8.85707 18.5716L11.1428 18.5716C12.7429 18.5716 13.543 18.5716 14.1542 18.2602C14.6918 17.9862 15.1289 17.5491 15.4028 17.0115C15.7142 16.4004 15.7142 15.6003 15.7142 14.0001L15.7142 6.00014C15.7142 4.39999 15.7142 3.59991 15.4028 2.98874C15.1289 2.45113 14.6918 2.01404 14.1542 1.74012C13.543 1.42871 12.7429 1.42871 11.1428 1.42871L8.85707 1.42871C7.25692 1.42871 6.45685 1.42871 5.84567 1.74012C5.30807 2.01404 4.87098 2.45113 4.59705 2.98874ZM11.1428 2.85728L8.85707 2.85728C8.03343 2.85728 7.50161 2.85839 7.09684 2.89146C6.70875 2.92317 6.56486 2.977 6.49423 3.01299C6.22543 3.14995 6.00688 3.36849 5.86992 3.6373C5.83393 3.70793 5.78011 3.85181 5.7484 4.2399C5.71533 4.64467 5.71422 5.17649 5.71422 6.00014L5.71422 14.0001C5.71422 14.8238 5.71533 15.3556 5.7484 15.7604C5.78011 16.1485 5.83393 16.2923 5.86992 16.363C6.00688 16.6318 6.22543 16.8503 6.49423 16.9873C6.56486 17.0233 6.70875 17.0771 7.09684 17.1088C7.50161 17.1419 8.03343 17.143 8.85707 17.143L11.1428 17.143C11.9664 17.143 12.4983 17.1419 12.903 17.1088C13.2911 17.0771 13.435 17.0233 13.5056 16.9873C13.7744 16.8503 13.993 16.6318 14.1299 16.363C14.1659 16.2923 14.2198 16.1485 14.2515 15.7604C14.2845 15.3556 14.2856 14.8238 14.2856 14.0001L14.2856 6.00014C14.2856 5.17649 14.2845 4.64467 14.2515 4.2399C14.2198 3.85181 14.1659 3.70793 14.1299 3.6373C13.993 3.36849 13.7744 3.14995 13.5056 3.01299C13.435 2.977 13.2911 2.92317 12.903 2.89146C12.4983 2.85839 11.9664 2.85728 11.1428 2.85728ZM8.57136 15.0001C8.57136 14.6056 8.89116 14.2859 9.28564 14.2859L10.7142 14.2859C11.1087 14.2859 11.4285 14.6056 11.4285 15.0001C11.4285 15.3946 11.1087 15.7144 10.7142 15.7144L9.28564 15.7144C8.89116 15.7144 8.57136 15.3946 8.57136 15.0001Z" fill="rgb(38,41,49)" fill-rule="evenodd" />
</svg>
